<svg width="13" height="12" viewBox="0 0 13 12" fill="none" xmlns="http://www.w3.org/2000/svg">
<path d="M6.78823 10.9627C4.0664 10.9627 1.84842 8.74475 1.84842 6.02291C1.84842 3.30107 4.0664 1.08309 6.78823 1.08309C9.51007 1.08309 11.728 3.30107 11.728 6.02291C11.728 8.74475 9.51007 10.9627 6.78823 10.9627ZM8.7938 5.13868C8.7197 5.06458 8.62585 5.03 8.53199 5.03C8.43813 5.03 8.34428 5.06458 8.27018 5.13868L6.78823 6.62063L5.30629 5.13868C5.16304 4.99543 4.92592 4.99543 4.78267 5.13868C4.63941 5.28194 4.63941 5.51905 4.78267 5.6623L6.52642 7.40606C6.66968 7.54931 6.90679 7.54931 7.05004 7.40606L8.7938 5.6623C8.93705 5.51411 8.93705 5.28194 8.7938 5.13868Z" fill="#EB3B5A"/>
</svg>
