<svg width="25" height="25" viewBox="0 0 25 25" fill="none" xmlns="http://www.w3.org/2000/svg">
<path d="M0.659729 5.43124C0.659729 2.97588 2.6502 0.985413 5.10556 0.985413H19.925C22.3804 0.985413 24.3708 2.97588 24.3708 5.43125V20.2507C24.3708 22.7061 22.3804 24.6965 19.925 24.6965H5.10556C2.65019 24.6965 0.659729 22.7061 0.659729 20.2507V5.43124Z" fill="#724BF2"/>
<path d="M16.156 9.32876L13.2613 8.03947C12.8364 7.85175 12.1943 7.85175 11.7694 8.03947L8.8747 9.32876C8.14361 9.65479 8.03493 10.0994 8.03493 10.3365C8.03493 10.5736 8.14361 11.0182 8.8747 11.3442L11.7694 12.6335C11.9818 12.7274 12.2486 12.7767 12.5153 12.7767C12.7821 12.7767 13.0488 12.7274 13.2613 12.6335L16.156 11.3442C16.8871 11.0182 16.9958 10.5736 16.9958 10.3365C16.9958 10.0994 16.892 9.65479 16.156 9.32876Z" fill="white"/>
<path d="M12.5153 15.3306C12.3276 15.3306 12.1399 15.2911 11.967 15.217L8.63757 13.7351C8.12877 13.5078 7.73358 12.9002 7.73358 12.342C7.73358 12.1395 7.8966 11.9765 8.09913 11.9765C8.30166 11.9765 8.46467 12.1395 8.46467 12.342C8.46467 12.6088 8.68697 12.9546 8.93396 13.0633L12.2634 14.5452C12.4215 14.6144 12.6042 14.6144 12.7623 14.5452L16.0917 13.0633C16.3387 12.9546 16.561 12.6137 16.561 12.342C16.561 12.1395 16.724 11.9765 16.9266 11.9765C17.1291 11.9765 17.2921 12.1395 17.2921 12.342C17.2921 12.8953 16.8969 13.5078 16.3881 13.7351L13.0587 15.217C12.8907 15.2911 12.703 15.3306 12.5153 15.3306Z" fill="white"/>
<path d="M12.5153 17.7808C12.3276 17.7808 12.1399 17.7413 11.967 17.6672L8.63757 16.1852C8.08925 15.9432 7.73358 15.3949 7.73358 14.7922C7.73358 14.5897 7.8966 14.4267 8.09913 14.4267C8.30166 14.4267 8.46467 14.5897 8.46467 14.7922C8.46467 15.1034 8.64745 15.385 8.93396 15.5134L12.2634 16.9954C12.4215 17.0645 12.6042 17.0645 12.7623 16.9954L16.0917 15.5134C16.3733 15.3899 16.561 15.1034 16.561 14.7922C16.561 14.5897 16.724 14.4267 16.9266 14.4267C17.1291 14.4267 17.2921 14.5897 17.2921 14.7922C17.2921 15.3949 16.9365 15.9382 16.3881 16.1852L13.0587 17.6672C12.8907 17.7413 12.703 17.7808 12.5153 17.7808Z" fill="white"/>
</svg>
