<svg width="31" height="31" viewBox="0 0 31 31" fill="none" xmlns="http://www.w3.org/2000/svg">
<path fill-rule="evenodd" clip-rule="evenodd" d="M13.2751 1.10455C8.37184 1.87337 4.34304 4.84924 2.16976 9.30705C0.157912 13.4341 0.156297 18.0728 2.16545 22.2216C5.49835 29.1039 13.5826 32.3266 20.7413 29.6266C24.1006 28.3597 27.1703 25.5833 28.7803 22.3561C30.569 18.7706 30.7682 14.1684 29.2991 10.3728C28.0278 7.0883 25.2778 4.07867 22.0866 2.47915C19.4415 1.15339 16.1942 0.646758 13.2751 1.10455ZM18.7469 5.68761C18.7921 5.80559 18.2699 7.80748 17.5861 10.1364C16.9024 12.4652 16.3665 14.3939 16.3951 14.4226C16.4237 14.4512 16.9252 14.327 17.5094 14.1468C18.0937 13.9665 18.5882 13.8353 18.6081 13.8554C18.675 13.9223 18.1697 15.4303 18.0422 15.5449C17.9729 15.6071 17.4264 15.7963 16.8279 15.9654L15.7395 16.273L15.0257 18.7091C14.6331 20.0491 14.284 21.2211 14.25 21.3136C14.2012 21.4458 15.0917 21.4817 18.4235 21.4817C21.7311 21.4817 22.6907 21.5199 22.8039 21.6563C22.9871 21.877 22.2277 24.5608 21.9113 24.8112C21.6387 25.0269 8.97022 25.0593 8.97022 24.8443C8.97022 24.7699 9.42424 23.1843 9.97917 21.3205C10.5341 19.4568 10.9881 17.888 10.9881 17.8343C10.9881 17.7806 10.4979 17.8873 9.89859 18.0713C9.2994 18.2554 8.78524 18.3821 8.75605 18.3529C8.72686 18.3237 8.82641 17.9346 8.97708 17.4883L9.25111 16.6768L10.4247 16.3246L11.5982 15.9724L13.0391 11.0755C13.8316 8.38218 14.5403 6.01989 14.614 5.82577L14.7481 5.47304H16.7064C18.3747 5.47304 18.6767 5.50478 18.7469 5.68761Z" fill="#345D9D"/>
</svg>
