<svg width="18" height="18" viewBox="0 0 18 18" fill="none" xmlns="http://www.w3.org/2000/svg">
<path d="M9 0.666626C4.40833 0.666626 0.666664 4.40829 0.666664 8.99996C0.666664 13.5916 4.40833 17.3333 9 17.3333C13.5917 17.3333 17.3333 13.5916 17.3333 8.99996C17.3333 4.40829 13.5917 0.666626 9 0.666626ZM12.3833 10.4916C12.2583 10.6166 12.1 10.675 11.9417 10.675C11.7833 10.675 11.625 10.6166 11.5 10.4916L9 7.99163L6.5 10.4916C6.25833 10.7333 5.85833 10.7333 5.61666 10.4916C5.375 10.25 5.375 9.84996 5.61666 9.60829L8.55833 6.66663C8.8 6.42496 9.2 6.42496 9.44166 6.66663L12.3833 9.60829C12.625 9.85829 12.625 10.25 12.3833 10.4916Z" fill="#20BF6B"/>
</svg>
